<svg className="prefix__prefix__icon" viewBox="0 0 1024 1024" width="1em" height="1em">
    <path
        d="M512 1024C229.222 1024 0 794.778 0 512S229.222 0 512 0s512 229.222 512 512-229.222 512-512 512zm76.8-419.226c-31.027-63.18-18.364-50.944 1.843-66.577 18.944-14.694 18.057-53.162 29.645-66.901 11.776-13.96 17.186-53.828 12.766-68.898-5.871-19.968-14.865-9.045-16.213-24.115-2.953-32.495 5.154-59.222-12.92-75.025-17.46-15.275-39.322-46.797-74.923-47.258-12.407-.154-26.47 3.584-42.598 12.97-76.8-8.31-76.305 76.852-79.24 109.364-1.366 15.07-10.377 4.215-16.214 24.183-4.437 15.053.99 55.057 12.749 69.018 11.605 13.756 10.7 52.48 29.645 67.157 20.207 15.65 32.87 3.926 1.843 67.106-15.616 31.847-117.999 17.46-138.155 45.364C281.6 672.46 281.618 716.8 281.6 716.8h460.8s0-44.34-15.445-65.638c-20.139-27.887-122.539-14.507-138.155-46.388z"
        fill="currentColor" />
</svg>