<svg width="1em" height="1em" viewBox="0 0 80 64" xmlns="http://www.w3.org/2000/svg">
  <defs>
    <clipPath id="prefix__a">
      <path d="M0 0h64v63.871H0V0z" />
    </clipPath>
  </defs>
  <path d="M0 54c0-5.523 17.909-10 40-10s40 4.477 40 10-17.909 10-40 10S0 59.523 0 54z" fill="#F5F5F5"
    fill-rule="evenodd" />
  <path d="M8 0h64v63.871H8V0z" fill="none" />
  <g clip-path="url(#prefix__a)" fill-rule="evenodd" transform="translate(8)">
    <path
      d="M32 44.839c-7.981 0-14.452-6.47-14.452-14.452H1.032v24.774h61.936V30.387H46.452c0 7.981-6.47 14.452-14.452 14.452z"
      fill="#FAFAFA" />
    <path
      d="M55.675 8.342l8.258 21.678c.038.106.058.217.06.33 0 .013.007.024.007.037v24.774c0 .57-.462 1.033-1.032 1.033H1.032C.462 56.194 0 55.73 0 55.16V30.387c0-.013.007-.024.007-.037a1.03 1.03 0 01.06-.33L8.325 8.342c.153-.4.537-.665.965-.665h45.42c.428 0 .812.265.965.665zm-45.673 1.4h43.996l7.472 19.613H46.452c-.57 0-1.033.462-1.033 1.032 0 7.411-6.008 13.42-13.419 13.42-7.411 0-13.42-6.009-13.42-13.42 0-.57-.462-1.032-1.032-1.032H2.53l7.472-19.613zM2.064 31.419v22.71h59.87v-22.71H47.45c-.54 8.135-7.297 14.458-15.45 14.458-8.153 0-14.91-6.323-15.45-14.458H2.065z"
      fill="#D9D9D9" />
    <path
      d="M7.226 50H6.194v-3.097a1.032 1.032 0 00-2.065 0v4.13c0 .57.462 1.032 1.032 1.032h2.065a1.032 1.032 0 000-2.065zm6.194 0h-2.065a1.032 1.032 0 000 2.065h2.064a1.032 1.032 0 000-2.065z"
      fill="#DCE0E6" />
  </g>
</svg>
